<mxfile host="app.diagrams.net" agent="Mozilla/5.0 (X11; Linux x86_64; rv:137.0) Gecko/20100101 Firefox/137.0" version="26.2.14">
  <diagram name="Page-1" id="t2919gkGJuyIqcn0u3JK">
    <mxGraphModel dx="467" dy="324" grid="1" gridSize="10" guides="1" tooltips="1" connect="1" arrows="1" fold="1" page="1" pageScale="1" pageWidth="850" pageHeight="1100" math="0" shadow="0">
      <root>
        <mxCell id="0" />
        <mxCell id="1" parent="0" />
        <mxCell id="yAxcGuMrdjNL_4U-_P00-19" style="edgeStyle=orthogonalEdgeStyle;rounded=0;orthogonalLoop=1;jettySize=auto;html=1;exitX=0.5;exitY=1;exitDx=0;exitDy=0;entryX=0;entryY=0.5;entryDx=0;entryDy=0;endArrow=none;startFill=0;" parent="1" source="yAxcGuMrdjNL_4U-_P00-2" target="yAxcGuMrdjNL_4U-_P00-16" edge="1">
          <mxGeometry relative="1" as="geometry">
            <mxPoint x="470" y="270" as="targetPoint" />
            <Array as="points">
              <mxPoint x="190" y="264" />
            </Array>
          </mxGeometry>
        </mxCell>
        <mxCell id="yAxcGuMrdjNL_4U-_P00-2" value="OCV" style="ellipse;whiteSpace=wrap;html=1;aspect=fixed;" parent="1" vertex="1">
          <mxGeometry x="170" y="195" width="40" height="40" as="geometry" />
        </mxCell>
        <mxCell id="yAxcGuMrdjNL_4U-_P00-12" style="edgeStyle=orthogonalEdgeStyle;rounded=0;orthogonalLoop=1;jettySize=auto;html=1;exitX=0;exitY=0.5;exitDx=0;exitDy=0;entryX=0.5;entryY=0;entryDx=0;entryDy=0;endArrow=none;startFill=0;" parent="1" source="yAxcGuMrdjNL_4U-_P00-3" target="yAxcGuMrdjNL_4U-_P00-2" edge="1">
          <mxGeometry relative="1" as="geometry" />
        </mxCell>
        <mxCell id="yAxcGuMrdjNL_4U-_P00-3" value="R" style="rounded=0;whiteSpace=wrap;html=1;" parent="1" vertex="1">
          <mxGeometry x="220" y="155" width="60" height="20" as="geometry" />
        </mxCell>
        <mxCell id="yAxcGuMrdjNL_4U-_P00-4" value="Rct" style="rounded=0;whiteSpace=wrap;html=1;" parent="1" vertex="1">
          <mxGeometry x="330" y="130" width="60" height="20" as="geometry" />
        </mxCell>
        <mxCell id="yAxcGuMrdjNL_4U-_P00-11" style="edgeStyle=orthogonalEdgeStyle;rounded=0;orthogonalLoop=1;jettySize=auto;html=1;exitX=0;exitY=0.5;exitDx=0;exitDy=0;endArrow=none;startFill=0;entryX=1;entryY=1;entryDx=0;entryDy=0;entryPerimeter=0;" parent="1" source="yAxcGuMrdjNL_4U-_P00-5" edge="1" target="yAxcGuMrdjNL_4U-_P00-7">
          <mxGeometry relative="1" as="geometry">
            <mxPoint x="320" y="200.1111111111111" as="targetPoint" />
            <Array as="points">
              <mxPoint x="355" y="190" />
            </Array>
          </mxGeometry>
        </mxCell>
        <mxCell id="yAxcGuMrdjNL_4U-_P00-5" value="" style="shape=partialRectangle;whiteSpace=wrap;html=1;top=0;bottom=0;fillColor=none;" parent="1" vertex="1">
          <mxGeometry x="355" y="168.5" width="10" height="40" as="geometry" />
        </mxCell>
        <mxCell id="yAxcGuMrdjNL_4U-_P00-6" value="Cct" style="text;html=1;align=center;verticalAlign=middle;resizable=0;points=[];autosize=1;strokeColor=none;fillColor=none;" parent="1" vertex="1">
          <mxGeometry x="359" y="166" width="40" height="30" as="geometry" />
        </mxCell>
        <mxCell id="yAxcGuMrdjNL_4U-_P00-7" value="" style="strokeWidth=1;html=1;shape=mxgraph.flowchart.annotation_2;align=left;labelPosition=right;pointerEvents=1;" parent="1" vertex="1">
          <mxGeometry x="280" y="140" width="50" height="50" as="geometry" />
        </mxCell>
        <mxCell id="yAxcGuMrdjNL_4U-_P00-15" style="edgeStyle=orthogonalEdgeStyle;rounded=0;orthogonalLoop=1;jettySize=auto;html=1;exitX=0;exitY=0.5;exitDx=0;exitDy=0;exitPerimeter=0;entryX=0;entryY=0.5;entryDx=0;entryDy=0;endArrow=none;startFill=0;" parent="1" source="yAxcGuMrdjNL_4U-_P00-8" target="yAxcGuMrdjNL_4U-_P00-13" edge="1">
          <mxGeometry relative="1" as="geometry" />
        </mxCell>
        <mxCell id="yAxcGuMrdjNL_4U-_P00-8" value="" style="strokeWidth=1;html=1;shape=mxgraph.flowchart.annotation_2;align=left;labelPosition=right;pointerEvents=1;rotation=-180;" parent="1" vertex="1">
          <mxGeometry x="390" y="140" width="35.71" height="50" as="geometry" />
        </mxCell>
        <mxCell id="yAxcGuMrdjNL_4U-_P00-10" style="edgeStyle=orthogonalEdgeStyle;rounded=0;orthogonalLoop=1;jettySize=auto;html=1;exitX=1;exitY=0.5;exitDx=0;exitDy=0;entryX=1;entryY=0;entryDx=0;entryDy=0;entryPerimeter=0;strokeColor=default;endArrow=none;startFill=0;" parent="1" source="yAxcGuMrdjNL_4U-_P00-5" target="yAxcGuMrdjNL_4U-_P00-8" edge="1">
          <mxGeometry relative="1" as="geometry">
            <Array as="points">
              <mxPoint x="365" y="190" />
            </Array>
          </mxGeometry>
        </mxCell>
        <mxCell id="yAxcGuMrdjNL_4U-_P00-13" value="" style="ellipse;whiteSpace=wrap;html=1;aspect=fixed;" parent="1" vertex="1">
          <mxGeometry x="480" y="161.5" width="7" height="7" as="geometry" />
        </mxCell>
        <mxCell id="yAxcGuMrdjNL_4U-_P00-16" value="" style="ellipse;whiteSpace=wrap;html=1;aspect=fixed;" parent="1" vertex="1">
          <mxGeometry x="480" y="260" width="7" height="7" as="geometry" />
        </mxCell>
        <mxCell id="yAxcGuMrdjNL_4U-_P00-20" value="" style="curved=1;endArrow=none;html=1;rounded=0;startFill=0;" parent="1" edge="1">
          <mxGeometry width="50" height="50" relative="1" as="geometry">
            <mxPoint x="483.5" y="240" as="sourcePoint" />
            <mxPoint x="483.5" y="190" as="targetPoint" />
            <Array as="points">
              <mxPoint x="493.5" y="230" />
              <mxPoint x="473.5" y="200" />
            </Array>
          </mxGeometry>
        </mxCell>
        <mxCell id="yAxcGuMrdjNL_4U-_P00-21" value="V-load" style="text;html=1;align=center;verticalAlign=middle;resizable=0;points=[];autosize=1;strokeColor=none;fillColor=none;" parent="1" vertex="1">
          <mxGeometry x="480" y="200" width="60" height="30" as="geometry" />
        </mxCell>
        <mxCell id="beKItPTJay8wKtfRdiwm-1" value="" style="curved=1;endArrow=none;html=1;rounded=0;startFill=0;strokeWidth=1;" edge="1" parent="1">
          <mxGeometry width="50" height="50" relative="1" as="geometry">
            <mxPoint x="330" y="210" as="sourcePoint" />
            <mxPoint x="390" y="210" as="targetPoint" />
            <Array as="points">
              <mxPoint x="330" y="210" />
              <mxPoint x="340" y="220" />
              <mxPoint x="380" y="220" />
            </Array>
          </mxGeometry>
        </mxCell>
        <mxCell id="beKItPTJay8wKtfRdiwm-2" value="Vct" style="text;html=1;align=center;verticalAlign=middle;resizable=0;points=[];autosize=1;strokeColor=none;fillColor=none;" vertex="1" parent="1">
          <mxGeometry x="340" y="216" width="40" height="30" as="geometry" />
        </mxCell>
      </root>
    </mxGraphModel>
  </diagram>
</mxfile>
